<?xml version="1.0" encoding="UTF-8" standalone="no"?>
<!-- Created with Inkscape (http://www.inkscape.org/) -->

<svg
   width="163.61391mm"
   height="49.004349mm"
   viewBox="0 0 163.61391 49.004349"
   version="1.1"
   id="svg1"
   xml:space="preserve"
   inkscape:version="1.4 (86a8ad7, 2024-10-11)"
   sodipodi:docname="logo.svg"
   xmlns:inkscape="http://www.inkscape.org/namespaces/inkscape"
   xmlns:sodipodi="http://sodipodi.sourceforge.net/DTD/sodipodi-0.dtd"
   xmlns="http://www.w3.org/2000/svg"
   xmlns:svg="http://www.w3.org/2000/svg"><sodipodi:namedview
     id="namedview1"
     pagecolor="#000000"
     bordercolor="#000000"
     borderopacity="0.25"
     inkscape:showpageshadow="2"
     inkscape:pageopacity="0.0"
     inkscape:pagecheckerboard="0"
     inkscape:deskcolor="#d1d1d1"
     inkscape:document-units="mm"
     inkscape:zoom="0.52221046"
     inkscape:cx="215.43038"
     inkscape:cy="334.15646"
     inkscape:window-width="1920"
     inkscape:window-height="1009"
     inkscape:window-x="-8"
     inkscape:window-y="-8"
     inkscape:window-maximized="1"
     inkscape:current-layer="layer1" /><defs
     id="defs1" /><g
     inkscape:label="Layer 1"
     inkscape:groupmode="layer"
     id="layer1"><path
       style="fill:#ffffff"
       d="M 22.162006,48.931527 C 14.193331,48.089567 7.3157792,43.661477 3.2862782,36.778437 0.22136917,31.543077 -0.75356183,25.162657 0.58893417,19.125697 1.9952572,12.801727 6.0350142,7.1075868 11.532026,3.7011468 c 9.710359,-6.0174 22.147985,-4.58520003 30.21213,3.47895 4.404082,4.4040802 6.886472,10.1095202 7.20106,16.5506702 0.182657,3.73986 -0.969425,8.75881 -2.789506,12.15224 -3.696573,6.89204 -10.137339,11.5498 -17.700304,12.80029 -1.763504,0.29159 -4.763203,0.4099 -6.2934,0.24823 z m 4.676176,-0.77095 c 7.963235,-0.83877 14.862795,-5.52985 18.702438,-12.71598 0.363655,-0.6806 0.637704,-1.26094 0.608997,-1.28965 -0.02871,-0.0287 -0.349053,0.33706 -0.711881,0.81282 -0.960887,1.25997 -2.926619,3.10881 -4.150006,3.90324 -3.044939,1.97729 -6.081558,2.89625 -9.570405,2.89625 -8.194698,0 -15.091547,-5.5892 -16.907484,-13.7018 -0.394514,-1.76247 -0.423554,-5.2082 -0.05804,-6.88634 0.763183,-3.50387 2.297294,-6.36606 4.733602,-8.83149 2.337985,-2.3659202 4.993515,-3.8557602 8.388728,-4.7063702 1.209628,-0.30304 1.592935,-0.33843 3.715272,-0.34296 3.152451,-0.007 4.878373,0.36062 7.532979,1.60332 2.264616,1.06013 4.828689,3.1466602 6.291238,5.1195302 0.360126,0.48579 0.678881,0.88325 0.708343,0.88325 0.225365,0 -1.415336,-2.90753 -2.472274,-4.38118 C 42.721535,9.2291168 40.687495,7.0855768 39.408924,6.0541368 36.4706,3.6837768 32.849655,1.9672168 29.222913,1.2253468 19.780559,-0.70615323 10.126316,3.2587768 4.7925902,11.258717 c -1.930844,2.89604 -3.01612,5.57162 -3.735838,9.21013 -0.17749703,0.89733 -0.22772603,1.78609 -0.22772603,4.02943 0,3.06366 0.09443,3.83742 0.77924803,6.38544 0.401775,1.49488 0.902456,2.77383 1.72458,4.40528 4.361381,8.65491 13.9077138,13.88251 23.5053248,12.87158 z m 8.856879,-7.5895 c 1.451298,-0.38666 2.18952,-0.66781 3.533427,-1.34569 2.164142,-1.09161 4.516793,-3.12845 5.969489,-5.16818 0.555055,-0.77936 1.866096,-3.20384 1.868565,-3.45551 5.42e-4,-0.0553 -0.358784,0.28426 -0.798503,0.75467 -1.028709,1.1005 -1.916258,1.75087 -3.228706,2.3659 -4.111279,1.92661 -9.085967,0.77139 -12.025723,-2.79261 -0.853702,-1.03499 -1.748795,-2.82789 -2.061293,-4.12885 -0.358128,-1.49092 -0.302174,-3.58804 0.134723,-5.04934 0.92083,-3.07992 3.022835,-5.40761 6.043928,-6.69285 1.014776,-0.4317 2.351791,-0.6659 3.801645,-0.6659 2.849346,0 5.385729,1.13014 7.351775,3.27573 0.430727,0.47007 0.78314,0.81592 0.78314,0.76856 0,-0.24386 -0.981548,-2.10048 -1.638047,-3.0984 -1.984844,-3.01707 -5.019062,-5.3445102 -8.472687,-6.4990802 -1.805651,-0.60364 -3.292117,-0.84272 -5.239469,-0.84272 -4.443776,0 -8.435454,1.64157 -11.610111,4.7746502 -3.175724,3.13413 -4.889812,7.24926 -4.89095,11.74204 -0.0011,4.34767 1.586134,8.2893 4.595652,11.41253 1.922874,1.99553 4.19907,3.44544 6.751319,4.30052 1.926443,0.64542 2.891968,0.77067 5.537845,0.71836 2.037731,-0.0403 2.537015,-0.0922 3.593981,-0.37383 z m 5.424263,-6.92279 c 0.422131,-0.10726 1.314362,-0.46733 1.982735,-0.80016 0.971816,-0.48393 1.42264,-0.81068 2.250753,-1.63131 2.035248,-2.01686 2.990466,-4.45648 2.829078,-7.22546 -0.241065,-4.13602 -3.199775,-7.69595 -7.190484,-8.65162 -1.079156,-0.25843 -3.043193,-0.28843 -4.079844,-0.0623 -4.532359,0.98857 -7.82208,5.34663 -7.447309,9.86582 0.373633,4.50546 3.661857,8.00895 8.201276,8.73817 0.657348,0.1056 2.650084,-0.0289 3.453795,-0.23312 z m 25.008041,15.13627 c -0.922721,-0.15243 -2.130505,-0.72816 -2.670404,-1.27295 -0.522132,-0.52685 -0.879203,-1.27997 -0.934391,-1.97076 l -0.04088,-0.51167 1.694919,-0.0357 1.694918,-0.0357 v 0.33335 c 0,0.76027 1.270873,1.44735 2.342307,1.26633 0.587284,-0.0992 1.239404,-0.6571 1.239404,-1.06028 0,-0.74016 -0.27075,-0.88713 -2.622323,-1.42349 -0.984972,-0.22466 -2.062962,-0.52543 -2.395534,-0.6684 -2.366638,-1.01732 -2.444413,-4.1653 -0.131692,-5.33035 0.973318,-0.49031 2.002681,-0.69011 3.48498,-0.67643 1.960889,0.0181 3.445069,0.54321 4.150931,1.46864 0.31086,0.40756 0.73889,1.71483 0.62496,1.90873 -0.031,0.0528 -0.760952,0.0959 -1.622112,0.0959 h -1.56573 l -0.15464,-0.42766 c -0.19721,-0.54538 -0.59687,-0.72362 -1.622538,-0.72362 -0.677688,0 -0.879206,0.0524 -1.172628,0.30477 -0.321101,0.2762 -0.339691,0.33685 -0.19834,0.64708 0.215928,0.47391 0.940382,0.76157 2.897126,1.15037 1.82773,0.36316 2.59321,0.6711 3.066542,1.23363 0.17299,0.20558 0.34702,0.37379 0.38674,0.37379 0.0397,0 0.0722,-0.22742 0.0722,-0.50538 0,-0.27796 0.0636,-0.81042 0.14136,-1.18324 0.74439,-3.56955 4.38291,-5.3446 8.08182,-3.94271 0.90899,0.34451 2.14157,1.44485 2.47668,2.21097 l 0.23716,0.54219 0.0362,-1.43908 0.0362,-1.43908 h 1.78306 1.78306 l 0.0356,1.75888 0.0356,1.75888 0.41228,-0.78902 c 0.81005,-1.55021 2.1783,-2.53989 4.08284,-2.9532 0.81511,-0.17688 1.11823,-0.18561 1.99703,-0.0575 1.08448,0.15807 2.32623,0.66567 2.92993,1.19769 0.57336,0.50528 1.22326,1.46874 1.44882,2.14784 0.11803,0.35535 0.25314,0.64617 0.30025,0.64626 0.0471,8e-5 0.067,-0.83458 0.0441,-1.85482 l -0.0415,-1.85498 h 1.7771 1.7771 l -0.0398,0.47969 c -0.067,0.80791 0.041,0.88754 0.53441,0.39411 1.13987,-1.13987 3.03146,-1.50679 4.72389,-0.91632 1.1825,0.41257 1.91283,1.43498 2.09697,2.93562 0.0773,0.62974 0.13621,0.80763 0.20696,0.62466 0.64775,-1.67543 1.3979,-2.57239 2.67004,-3.19261 2.95819,-1.44223 6.55349,-0.44471 7.75723,2.15226 l 0.34788,0.75051 0.38803,-0.68655 c 1.73449,-3.06888 6.35763,-3.84438 8.92578,-1.49723 1.13303,1.03552 1.96014,3.09761 1.97988,4.93604 l 0.004,0.41574 h -4.02943 c -4.47293,0 -4.17803,-0.0696 -3.83418,0.90497 0.24712,0.70042 0.50591,0.9901 1.14789,1.2849 0.98535,0.45247 2.36492,0.19386 2.88853,-0.54148 l 0.2629,-0.36921 h 1.66284 1.66285 l -0.0859,0.28782 c -0.16971,0.56886 -0.69155,1.33577 -1.27467,1.87328 -1.68407,1.55231 -4.69346,1.87984 -7.05349,0.76766 -0.89472,-0.42164 -2.10083,-1.62042 -2.3648,-2.35041 -0.0896,-0.24774 -0.19448,-0.45021 -0.23312,-0.44995 -0.0386,2.6e-4 -0.17902,0.26497 -0.31197,0.58823 -0.31784,0.77276 -1.37357,1.82437 -2.25267,2.24387 -2.6424,1.26091 -5.94307,0.52823 -7.44327,-1.65224 -0.21988,-0.31958 -0.50321,-0.84542 -0.62962,-1.16852 l -0.22984,-0.58745 -0.006,1.82284 -0.006,1.82283 h -1.79086 -1.79085 v -3.38725 c 0,-3.87237 -0.0786,-4.30133 -0.84718,-4.62245 -0.99357,-0.41514 -2.11229,-0.0908 -2.56843,0.74468 -0.2002,0.36668 -0.23837,0.86978 -0.29403,3.87519 l -0.064,3.45379 -1.75888,0.0356 -1.75888,0.0356 v -2.30614 -2.30614 h -3.96547 c -3.90108,0 -3.96547,0.004 -3.96547,0.25995 0,0.34169 0.33661,1.13767 0.61249,1.44835 0.32846,0.36991 1.17698,0.71653 1.754,0.71653 0.64355,0 1.47398,-0.37074 1.8223,-0.81356 l 0.26717,-0.33966 1.67951,0.0358 1.67951,0.0358 -0.39437,0.7888 c -1.08808,2.17629 -3.95543,3.21214 -6.84547,2.47299 -1.72769,-0.44186 -2.94341,-1.38545 -3.52978,-2.73964 -0.169,-0.39031 -0.35045,-0.71064 -0.40322,-0.71184 -0.0528,-0.001 -0.0959,0.74776 -0.0959,1.66436 v 1.66655 l -1.75888,-0.0356 -1.75888,-0.0356 -0.064,-1.45829 -0.064,-1.45828 -0.23492,0.49446 c -0.79067,1.66421 -2.40308,2.66255 -4.56202,2.82465 -1.07749,0.0809 -2.34083,-0.15714 -3.22328,-0.60733 -0.72833,-0.37157 -1.79853,-1.41018 -2.16513,-2.10124 -0.16693,-0.31467 -0.33422,-0.57213 -0.37175,-0.57213 -0.0375,0 -0.14826,0.27107 -0.24609,0.60237 -0.22161,0.75057 -1.001522,1.61697 -1.836322,2.04 -1.17231,0.59405 -3.146344,0.81408 -4.821343,0.53738 z m 13.316575,-2.95985 c 0.39484,-0.26506 0.76246,-0.81611 0.93606,-1.40314 0.0585,-0.19777 0.25302,-0.22386 1.66919,-0.22386 h 1.60299 v -1.27919 -1.27918 h -1.6311 -1.63109 l -0.2557,-0.52887 c -0.66182,-1.36888 -2.80577,-1.33812 -3.54788,0.0509 -0.25038,0.46864 -0.28953,0.73223 -0.28953,1.94903 0,1.49605 0.12547,1.92231 0.73689,2.50339 0.39568,0.37604 0.70162,0.48515 1.38682,0.49459 0.4106,0.006 0.72019,-0.0802 1.02335,-0.28367 z m 36.54207,0.075 c 0.35276,-0.1674 0.52951,-0.38115 0.77565,-0.93807 l 0.31878,-0.72127 1.4183,0.0107 1.4183,0.0107 0.064,-1.31146 0.064,-1.31145 -1.53833,2.9e-4 -1.53834,2.9e-4 -0.25252,-0.53525 c -0.61102,-1.29511 -2.4885,-1.35262 -3.40624,-0.10434 -0.32481,0.44179 -0.53451,1.69521 -0.44582,2.66472 0.17772,1.94259 1.59732,2.95887 3.1223,2.23522 z m -20.94909,-4.14508 c 0,-0.76551 -0.91071,-1.80853 -1.71005,-1.95849 -0.56145,-0.10533 -1.33671,0.0885 -1.79458,0.44864 -0.38604,0.30367 -0.8446,1.1275 -0.8446,1.5174 0,0.2524 0.0711,0.26093 2.17461,0.26093 2.12348,0 2.17462,-0.006 2.17462,-0.26848 z m 32.87502,0.008 c 0,-0.40024 -0.45624,-1.2047 -0.89043,-1.57005 -0.52143,-0.43875 -1.34416,-0.55682 -1.99248,-0.28593 -0.66122,0.27627 -0.94346,0.54281 -1.22574,1.15753 -0.45406,0.98879 -0.51334,0.95938 1.93403,0.95938 2.10349,0 2.17462,-0.008 2.17462,-0.26093 z m -44.25976,-6.83854 v -1.34314 h 1.79086 1.79086 v 1.34314 1.34315 h -1.79086 -1.79086 z m 72.65763,0.82367 c -0.96718,-0.16823 -2.21587,-0.80509 -2.67816,-1.36593 -0.35808,-0.43441 -0.77563,-1.3943 -0.77563,-1.78305 0,-0.13207 0.38915,-0.1691 1.77699,-0.1691 1.76431,0 1.77753,0.002 1.85331,0.3041 0.11057,0.44054 0.64802,0.73708 1.47113,0.81172 1.56775,0.14216 2.18197,-0.55864 2.1871,-2.49539 l 0.003,-1.05978 -0.4148,0.47244 c -1.26391,1.43951 -4.02792,1.45919 -5.64003,0.0402 -0.53143,-0.46778 -1.32307,-1.76676 -1.39133,-2.283 -0.0148,-0.11188 -0.058,0.68881 -0.0959,1.77931 l -0.069,1.98273 -1.75888,0.0356 -1.75887,0.0356 -7.2e-4,-3.36146 c -3.9e-4,-1.84881 -0.0579,-3.56722 -0.12772,-3.81868 -0.19464,-0.70066 -0.64573,-1.04779 -1.43758,-1.10627 -0.83608,-0.0617 -1.4534,0.23002 -1.81947,0.85993 -0.24129,0.4152 -0.26306,0.70084 -0.29969,3.93349 l -0.0395,3.48577 h -1.78334 -1.78334 v -5.43653 -5.43653 h 1.7269 1.7269 v 0.70392 0.70392 l 0.45905,-0.50812 c 0.69407,-0.76825 1.69577,-1.19764 2.8916,-1.2395 1.24464,-0.0436 2.06176,0.19431 2.78044,0.80948 0.61411,0.52565 1.15707,1.54555 1.159,2.17706 6.9e-4,0.2245 0.0588,0.44376 0.12917,0.48724 0.0704,0.0435 0.12792,-0.001 0.12792,-0.0999 0,-0.0984 0.17478,-0.52876 0.38839,-0.95624 0.73409,-1.46903 2.14213,-2.36492 3.7996,-2.41755 1.21928,-0.0387 1.93348,0.2134 2.65856,0.93848 l 0.57271,0.57271 v -0.58573 -0.58573 h 1.73314 1.73314 l -0.0445,5.59643 c -0.0316,3.97495 -0.09,5.73272 -0.20156,6.06682 -0.41967,1.25703 -1.54135,2.32268 -2.88109,2.73715 -0.79291,0.2453 -3.19306,0.34557 -4.17666,0.17449 z m 2.91967,-7.24119 c 1.29268,-0.94127 1.20798,-3.91353 -0.13418,-4.70873 -0.57586,-0.34119 -1.63511,-0.33689 -2.11065,0.009 -0.58213,0.42288 -0.96695,1.34604 -0.97277,2.33359 -0.008,1.36266 0.41863,2.19306 1.32128,2.57156 0.4669,0.19578 1.49917,0.0842 1.89632,-0.20499 z m -91.758972,3.83243 c -1.201411,-0.11194 -2.643936,-0.82524 -3.470641,-1.71617 -1.02407,-1.10362 -1.454217,-2.27534 -1.454217,-3.96129 0,-1.84457 0.564369,-3.24175 1.761919,-4.36192 1.678891,-1.57041 3.992203,-1.92195 6.492179,-0.98659 0.98665,0.36915 2.088862,1.43884 2.425822,2.35425 0.12948,0.35177 0.27505,0.68585 0.32348,0.74239 0.0484,0.0565 0.25001,-0.21731 0.44796,-0.60854 0.40517,-0.80081 1.54025,-1.95227 2.31324,-2.34662 1.25649,-0.64101 2.85751,-0.81989 4.20262,-0.46953 1.74271,0.45392 2.96432,1.43914 3.6939,2.97912 l 0.4048,0.85444 0.0355,-1.82284 0.0355,-1.82283 h 1.72339 1.72338 v 0.63959 c 0,0.35177 0.0325,0.63959 0.0722,0.63959 0.0397,0 0.21597,-0.17083 0.39166,-0.37963 0.17568,-0.20879 0.70357,-0.56856 1.17307,-0.79949 0.77332,-0.38036 0.96212,-0.41986 2.00681,-0.41986 1.00157,0 1.24821,0.0467 1.87594,0.35494 0.78322,0.38462 1.24848,0.8979 1.60675,1.7726 0.20396,0.49795 0.22886,1.01808 0.22886,4.78005 v 4.22131 l -1.75888,0.0356 -1.75887,0.0356 v -3.46151 c 0,-3.68333 -0.0465,-4.01552 -0.63537,-4.54061 -0.22281,-0.19867 -0.46784,-0.25584 -1.09656,-0.25584 -0.72473,0 -0.85192,0.0402 -1.21281,0.38376 -0.22174,0.21107 -0.47016,0.49888 -0.55205,0.63959 -0.0985,0.16923 -0.17054,1.42507 -0.21285,3.70964 l -0.064,3.45379 -1.75534,0.0356 -1.75534,0.0356 -0.0355,-1.8245 -0.0355,-1.82449 -0.40842,0.82954 c -0.66347,1.34761 -1.77156,2.32269 -3.22368,2.83675 -0.96959,0.34324 -2.75317,0.36362 -3.72321,0.0425 -1.40971,-0.46662 -2.65254,-1.50407 -3.26002,-2.72131 -0.18433,-0.36937 -0.35768,-0.67158 -0.38521,-0.67158 -0.0275,0 -0.20588,0.34723 -0.39633,0.77161 -0.45167,1.00646 -1.548772,2.04134 -2.573792,2.42782 -0.69699,0.2628 -2.04265,0.52798 -2.466849,0.48613 -0.105533,-0.0104 -0.422131,-0.0404 -0.703551,-0.0666 z m 1.72889,-2.95549 c 0.31121,-0.16197 0.54902,-0.44163 0.78803,-0.92669 l 0.34231,-0.69471 1.489672,-7.3e-4 1.48968,-7.2e-4 0.0241,-1.31116 0.0241,-1.31116 h -1.569282 -1.56928 l -0.20375,-0.50922 c -0.27362,-0.68384 -0.90956,-1.07317 -1.722697,-1.05465 -1.006262,0.0229 -1.652487,0.47848 -1.979537,1.3955 -0.244278,0.68494 -0.23627,2.613 0.01333,3.21054 0.224149,0.53659 0.761595,1.15282 1.14448,1.31223 0.441906,0.18399 1.265464,0.13196 1.728894,-0.10923 z m 10.884132,-0.0608 c 0.23906,-0.16103 0.57856,-0.54958 0.75445,-0.86345 0.28175,-0.50279 0.31979,-0.72287 0.31979,-1.84987 0,-1.06569 -0.046,-1.36458 -0.27536,-1.79086 -0.37156,-0.6904 -0.82221,-1.08771 -1.37521,-1.21243 -0.96118,-0.21678 -1.75115,0.20055 -2.29501,1.21243 -0.41181,0.76619 -0.39783,2.69414 0.0258,3.55442 0.58028,1.17848 1.86794,1.60826 2.84557,0.94976 z m 31.26298,2.73771 c -1.01794,-0.2959 -1.42334,-0.52105 -2.20724,-1.22584 -0.63987,-0.5753 -1.4073,-1.84428 -1.4652,-2.42278 -0.0147,-0.14706 -0.0579,0.59606 -0.0959,1.65139 l -0.0692,1.91877 -1.75888,0.0356 -1.75888,0.0356 v -3.46151 c 0,-3.66149 -0.0485,-4.01765 -0.61674,-4.52375 -0.34364,-0.30609 -1.26599,-0.41061 -1.86858,-0.21173 -0.31346,0.10345 -0.58358,0.32784 -0.81465,0.67675 l -0.3457,0.52197 -0.064,3.46355 -0.064,3.46354 -1.75888,0.0356 -1.75888,0.0356 v -5.44014 -5.44014 h 1.7269 1.7269 v 0.70392 0.70392 l 0.45916,-0.50823 c 1.35646,-1.50145 4.16336,-1.7212 5.65679,-0.44287 0.68756,0.58852 1.00504,1.2098 1.2004,2.34905 l 0.15433,0.89996 0.2208,-0.5817 c 0.51622,-1.35992 2.01843,-2.74076 3.48228,-3.20093 2.08657,-0.65593 4.33299,-0.21436 5.80611,1.1413 0.73092,0.67263 1.07064,1.20875 1.47066,2.32088 l 0.31667,0.8804 0.0933,-0.50189 c 0.14948,-0.80428 0.94856,-2.1904 1.59334,-2.76388 2.09159,-1.86029 5.7351,-1.83797 7.87795,0.0482 l 0.57779,0.50859 v -0.77254 -0.77254 l 0.86345,-0.0378 0.86345,-0.0378 0.0358,-1.63096 0.0358,-1.63095 h 1.78704 1.78703 v 1.06945 c 0,0.5882 0.0366,1.33652 0.0814,1.66294 l 0.0813,0.59348 h 1.07489 1.0749 l -0.037,1.11929 -0.037,1.11928 -1.05532,0.0372 -1.05533,0.0371 0.002,2.7131 c 0.001,1.4922 0.0443,2.77643 0.0959,2.85384 0.18823,0.2819 0.66833,0.43488 1.36475,0.43488 h 0.71196 v 1.21924 c 0,1.04134 -0.0327,1.23248 -0.22385,1.30997 -0.12313,0.0499 -0.91462,0.0913 -1.75888,0.0919 -1.67645,10e-4 -2.25471,-0.13343 -2.89881,-0.6754 -0.75122,-0.63211 -0.80444,-0.90998 -0.87478,-4.56806 l -0.064,-3.32588 -0.73207,-0.0383 -0.73208,-0.0383 0.18842,0.53404 c 0.10363,0.29372 0.18842,0.67071 0.18842,0.83775 v 0.30371 h -1.6661 -1.66611 l -0.13289,-0.35177 c -0.60669,-1.606 -2.83544,-1.65977 -3.63437,-0.0877 -0.20982,0.41287 -0.25583,0.7565 -0.25583,1.91052 0,1.30039 0.0263,1.45192 0.34741,1.99807 0.43891,0.74661 1.04554,1.06036 1.89282,0.97894 0.80086,-0.0769 1.31016,-0.46228 1.64752,-1.2465 l 0.2767,-0.64321 h 1.59944 c 1.84636,0 1.8486,0.001 1.53936,1.06529 -0.40295,1.38609 -1.56459,2.60893 -3.01799,3.17699 -0.88695,0.34666 -2.92634,0.46959 -3.81103,0.22971 -2.05723,-0.5578 -3.57955,-2.10937 -4.00192,-4.07881 l -0.13919,-0.64901 h -3.90765 -3.90764 l 0.0716,0.44118 c 0.20759,1.27921 1.03429,1.98927 2.31604,1.98927 0.83785,0 1.10948,-0.11226 1.74871,-0.72267 l 0.45719,-0.43658 1.61893,0.036 1.61893,0.036 -0.30481,0.65745 c -0.59487,1.28303 -1.63401,2.14441 -3.15986,2.61931 -1.00719,0.31347 -2.93448,0.31331 -4.01345,-3.4e-4 z m 4.02943,-6.89662 c 0,-0.11029 -0.12066,-0.44977 -0.26813,-0.7544 -0.63889,-1.31978 -2.40817,-1.59462 -3.40342,-0.52868 -0.27265,0.292 -0.67768,1.11561 -0.67768,1.378 0,0.0788 0.73095,0.14232 1.8868,0.16401 2.191,0.0411 2.46243,0.0126 2.46243,-0.25893 z m 22.00195,1.44559 v -5.43653 h 1.79086 1.79086 v 5.43653 5.43653 h -1.79086 -1.79086 z m 0,-8.25434 v -1.41072 l 1.75888,0.0356 1.75888,0.0356 0.0363,1.37513 0.0363,1.37512 h -1.79518 -1.79519 z m -55.28981,-2.75367 c -2.60704,-0.63197 -4.19222,-2.72613 -4.19222,-5.53827 0,-0.3154102 -0.0332,-0.5402802 -0.0738,-0.4997202 -0.0405,0.0406 -0.48769,1.3885002 -0.99363,2.9954202 l -0.91989,2.92168 -1.7584,0.0356 c -1.73325,0.0351 -1.76001,0.0314 -1.8705,-0.25924 -0.0617,-0.16217 -0.44234,-1.70361 -0.845972,-3.42544 -0.40363,-1.72183 -0.77657,-3.2107202 -0.82877,-3.3086602 -0.0565,-0.10607 -0.23663,0.43694 -0.44547,1.34315 -0.19281,0.8366602 -0.56591,2.4422202 -0.8291,3.5679002 l -0.47853,2.04669 -1.72744,0.0355 c -1.285498,0.0264 -1.759482,-0.006 -1.852697,-0.12792 C 65.1238,15.195197 61.906009,4.9502168 61.906009,4.6723168 c 0,-0.0803 0.667735,-0.12882 1.772175,-0.12882 h 1.772175 l 0.537669,2.11103 c 0.295719,1.16107 0.692446,2.71528 0.881618,3.4538002 0.189171,0.73852 0.377245,1.34276 0.417943,1.34276 0.0407,0 0.377528,-1.39591 0.748511,-3.1020202 0.370984,-1.70611 0.716788,-3.24593 0.768458,-3.42181 0.0933,-0.31747 0.10611,-0.32006 1.7623,-0.35538 l 1.668352,-0.0356 0.13748,0.54725 c 0.0756,0.30099 0.42916,1.83856 0.78566,3.41683 0.61422,2.7191202 0.71071,3.0665202 0.81662,2.9400502 0.0246,-0.0293 0.37268,-1.37725 0.77361,-2.9954202 0.40094,-1.61817 0.78601,-3.15798 0.85572,-3.42182 l 0.12675,-0.47969 h 1.78593 c 0.98226,0 1.78593,0.0435 1.78593,0.0968 0,0.0532 -0.1653,0.60126 -0.36733,1.21783 -0.35772,1.09169 -0.36132,1.56839 -0.007,0.90604 0.27714,-0.51784 1.4103,-1.48475 2.17285,-1.85405 2.25191,-1.09062 5.03505,-0.70849 6.65763,0.91409 0.33613,0.33613 0.79265,1.00382 1.05483,1.54275 l 0.46222,0.95014 0.002,-3.93349 0.002,-3.93349003 h 1.79086 1.79085 V 8.0008968 15.551687 l -1.75887,-0.0356 -1.75888,-0.0356 -0.0364,-1.46814 -0.0364,-1.46814 -0.36511,0.63929 c -0.71481,1.25158 -1.99087,2.1363 -3.56576,2.47221 -0.89379,0.19063 -2.34195,0.16644 -3.25272,-0.0543 z m 2.84235,-2.43797 c 0.28375,-0.11353 0.63421,-0.37257 0.77881,-0.57563 l 0.26289,-0.36921 h 1.65423 1.65423 v -0.63959 -0.63959 h -3.90151 c -3.83679,0 -3.90151,0.004 -3.90151,0.25994 0,0.37539 0.35057,1.15834 0.67768,1.5135 0.60289,0.6546 1.78543,0.8466 2.77518,0.45058 z m 0.94481,-4.6224902 c -0.13724,-0.57237 -0.39755,-1.00342 -0.82122,-1.35992 -0.48973,-0.41209 -0.86608,-0.51332 -1.60051,-0.43054 -0.91791,0.10346 -1.56941,0.73721 -1.90637,1.85442 l -0.0868,0.28782 h 2.24963 2.24963 z m 15.67513,7.0335202 c -1.05759,-0.28696 -2.19409,-0.96281 -2.74806,-1.6342 -0.41133,-0.49852 -1.04688,-1.70989 -1.10462,-2.10542 -0.0154,-0.10553 -0.0591,0.67157 -0.0972,1.7269 l -0.0692,1.91877 -1.75887,0.0356 -1.75888,0.0356 V 8.0008968 0.45009677 h 1.79086 1.79085 l 0.007,4.12537003 0.007,4.12537 0.28901,-0.77733 c 0.38335,-1.0311 0.73455,-1.57907 1.41269,-2.20415 2.58307,-2.38099 7.4161,-1.69418 8.79694,1.25012 0.16342,0.34846 0.32602,0.63593 0.36131,0.63881 0.0353,0.003 0.20076,-0.25222 0.3677,-0.56689 0.36637,-0.69063 1.43667,-1.7296 2.16396,-2.10064 1.25381,-0.63964 2.91808,-0.81886 4.28878,-0.46184 1.03968,0.2708 1.69136,0.63434 2.48837,1.38812 0.74336,0.70304 0.95759,1.02959 1.39754,2.13025 l 0.28121,0.70355 0.007,-2.08228 0.007,-2.08229 1.75806,0.0356 1.75805,0.0356 0.0191,0.63959 c 0.0105,0.35178 0.0252,0.6434 0.0328,0.64806 0.008,0.005 0.29793,-0.26547 0.64529,-0.60027 0.98599,-0.95037 2.36378,-1.2435 3.81675,-0.81201 0.63385,0.18823 1.37659,0.75465 1.65319,1.26074 0.12124,0.22182 0.17551,0.19776 0.69268,-0.30715 1.01087,-0.98689 2.42519,-1.35086 3.98827,-1.02637 1.40473,0.29162 2.38656,1.44527 2.61692,3.07488 l 0.0993,0.70286 0.36587,-0.74781 c 0.71351,-1.45836 2.33404,-2.682 4.01591,-3.03237 0.97237,-0.20257 2.61134,-0.0793 3.47564,0.26135 2.04537,0.80621 3.27918,2.65998 3.42845,5.15118 l 0.0671,1.1192802 h -4.00006 -4.00005 l 0.0697,0.51951 c 0.25138,1.87421 2.86272,2.61589 4.08708,1.16082 l 0.33755,-0.40114 h 1.60724 c 1.80164,0 1.80657,0.003 1.35751,0.88344 -0.37197,0.72912 -0.88054,1.28133 -1.60064,1.73798 -0.92824,0.58865 -1.76547,0.83859 -3.07449,0.91785 -2.58063,0.15624 -4.74002,-0.90636 -5.68504,-2.7975 l -0.38325,-0.76697 -0.0359,1.64356 -0.0359,1.64355 -1.75888,0.0356 -1.75888,0.0356 -0.003,-3.2975 c -0.002,-1.81363 -0.0562,-3.5277702 -0.12113,-3.8091902 -0.0706,-0.30591 -0.27594,-0.65313 -0.51064,-0.86345 -0.7318,-0.65576 -1.94521,-0.38239 -2.34581,0.52848 -0.0934,0.2123 -0.17185,1.6232 -0.2143,3.8527302 l -0.067,3.51775 -1.75888,0.0356 -1.75887,0.0356 -7.2e-4,-3.42542 c -4e-4,-1.95294 -0.0573,-3.6291302 -0.13232,-3.8993002 -0.37705,-1.35758 -2.18143,-1.34745 -2.78823,0.0157 -0.1634,0.36705 -0.21758,1.13259 -0.27232,3.8480502 l -0.0683,3.38984 h -1.7269 -1.7269 l -0.0689,-2.0467 c -0.0379,-1.12568 -0.0811,-1.95369 -0.0959,-1.84002 -0.0149,0.11367 -0.22813,0.60865 -0.47392,1.09995 -1.10729,2.21333 -3.4502,3.3885 -6.01804,3.01857 -1.7593,-0.25345 -3.49064,-1.40074 -4.07739,-2.70192 -0.13292,-0.29478 -0.27903,-0.53597 -0.32468,-0.53597 -0.0456,0 -0.20275,0.24649 -0.34911,0.54774 -0.80163,1.64999 -2.43124,2.6051 -4.64577,2.72288 -0.79429,0.0422 -1.31418,-0.004 -1.92916,-0.17059 z m 2.76063,-2.8275 c 0.3488,-0.1998 0.71325,-0.74652 0.88516,-1.32786 0.0578,-0.19556 0.24347,-0.22385 1.46853,-0.22385 h 1.40234 l 0.0424,-1.2472102 c 0.0233,-0.68596 0.0239,-1.29037 10e-4,-1.34314 -0.0226,-0.0528 -0.68536,-0.0961 -1.4727,-0.0963 l -1.43153,-3.5e-4 -0.25584,-0.46898 c -0.79548,-1.45823 -2.75546,-1.37472 -3.51776,0.14988 -0.2783,0.5566 -0.31929,0.80557 -0.31595,1.9187702 0.004,1.35746 0.20795,1.99811 0.80878,2.54148 0.54138,0.4896 1.62362,0.53386 2.38534,0.0975 z m 10.5552,-0.0487 c 0.82359,-0.5597 1.24256,-1.98715 1.00896,-3.4376502 -0.15222,-0.94518 -0.36307,-1.38188 -0.87532,-1.81291 -0.68854,-0.57937 -1.68837,-0.60662 -2.3772,-0.0648 -0.94958,0.74694 -1.28996,3.0327202 -0.65342,4.3879302 0.46441,0.98874 0.7667,1.18881 1.8208,1.20512 0.47798,0.007 0.766,-0.0669 1.07618,-0.27771 z m 29.41718,-4.0933902 c -0.003,-0.44145 -0.52813,-1.27038 -1.01013,-1.5952 -0.77935,-0.52521 -1.97961,-0.35841 -2.65931,0.36957 -0.27427,0.29374 -0.67768,1.11608 -0.67768,1.38142 0,0.0856 0.76504,0.13203 2.17461,0.13203 2.1705,0 2.17461,-5.5e-4 2.17251,-0.28782 z"
       id="path1" /></g></svg>
